<svg width="16" height="15" viewBox="0 0 16 15" xmlns="http://www.w3.org/2000/svg">
  <path d="M13.7567 0V6.52011H12.506V1.24239H12.4452L11 2.2928V1.10788L12.506 0H13.7567Z" />
  <path fill-rule="evenodd" clip-rule="evenodd" d="M12.7579 14.7683C11.401 14.7683 10.7196 13.9649 10.6551 13.2056H11.8533C11.9225 13.4783 12.2626 13.7558 12.7758 13.7558C13.7591 13.7558 14.1649 12.7421 14.1279 11.4863H14.0575C13.8808 11.9632 13.3772 12.3936 12.5526 12.3936C11.4666 12.3936 10.5 11.644 10.5 10.2439C10.5 8.84008 11.512 8 12.8545 8C14.1553 8 15.3165 8.77772 15.3165 11.2857C15.3165 13.5687 14.4549 14.7683 12.7579 14.7683ZM12.8319 11.4239C13.4333 11.4239 13.9453 11.013 13.9453 10.2353C13.9453 9.46128 13.4703 9.00272 12.8235 9.00272C12.203 9.00272 11.7172 9.46128 11.7172 10.2255C11.7172 11.0082 12.2161 11.4239 12.8319 11.4239Z" />
  <path d="M3.5809 0.611413C3.5809 0.449256 3.51803 0.293741 3.40613 0.179079C3.29423 0.0644167 3.14246 0 2.98421 0C2.82595 0 2.67418 0.0644167 2.56228 0.179079C2.45038 0.293741 2.38751 0.449256 2.38751 0.611413V12.5865L1.0199 11.184C0.964423 11.1271 0.898561 11.082 0.826076 11.0513C0.753591 11.0205 0.675901 11.0047 0.597444 11.0047C0.518987 11.0047 0.441297 11.0205 0.368812 11.0513C0.296327 11.082 0.230465 11.1271 0.174987 11.184C0.119509 11.2408 0.075502 11.3083 0.0454776 11.3826C0.0154532 11.4568 0 11.5365 0 11.6168C0 11.6972 0.0154532 11.7768 0.0454776 11.8511C0.075502 11.9254 0.119509 11.9929 0.174987 12.0497L2.5701 14.5027C2.68213 14.6147 2.83279 14.6767 2.98926 14.6753C3.14573 14.6739 3.29533 14.6093 3.40547 14.4954L5.79223 12.0497C5.90427 11.9351 5.96728 11.7795 5.96739 11.6173C5.9675 11.455 5.90471 11.2994 5.79283 11.1846C5.68094 11.0698 5.52913 11.0052 5.37079 11.0051C5.21245 11.005 5.06055 11.0693 4.94851 11.184L3.5809 12.5865V0.611413Z" />
</svg>
