<svg width="15" height="16" fill="#F0A832" viewBox="0 0 15 16" xmlns="http://www.w3.org/2000/svg">
  <path d="M13.5767 0V6.52011H12.326V1.24239H12.2652L10.82 2.2928V1.10788L12.326 0H13.5767Z" />
  <path fill-rule="evenodd" clip-rule="evenodd" d="M12.4414 15.2483C11.0845 15.2483 10.4031 14.4449 10.3386 13.6856H11.5368C11.606 13.9583 11.9461 14.2358 12.4593 14.2358C13.4426 14.2358 13.8484 13.2221 13.8114 11.9663H13.741C13.5643 12.4432 13.0607 12.8736 12.2361 12.8736C11.1501 12.8736 10.1835 12.124 10.1835 10.7239C10.1835 9.32008 11.1955 8.48 12.538 8.48C13.8388 8.48 15 9.25772 15 11.7657C15 14.0487 14.1384 15.2483 12.4414 15.2483ZM12.5154 11.9039C13.1168 11.9039 13.6288 11.493 13.6288 10.7153C13.6288 9.94128 13.1538 9.48272 12.507 9.48272C11.8865 9.48272 11.4007 9.94128 11.4007 10.7055C11.4007 11.4882 11.8996 11.9039 12.5154 11.9039Z" />
  <path d="M3.5809 0.611426C3.5809 0.44927 3.51803 0.293754 3.40613 0.179092C3.29423 0.06443 3.14246 1.33514e-05 2.98421 1.33514e-05C2.82595 1.33514e-05 2.67418 0.06443 2.56228 0.179092C2.45038 0.293754 2.38751 0.44927 2.38751 0.611426V12.5866L1.0199 11.184C0.964423 11.1271 0.898561 11.082 0.826076 11.0513C0.753591 11.0205 0.675901 11.0047 0.597444 11.0047C0.518987 11.0047 0.441297 11.0205 0.368812 11.0513C0.296327 11.082 0.230465 11.1271 0.174987 11.184C0.119509 11.2408 0.075502 11.3083 0.0454776 11.3826C0.0154532 11.4569 0 11.5365 0 11.6169C0 11.6973 0.0154532 11.7769 0.0454776 11.8511C0.075502 11.9254 0.119509 11.9929 0.174987 12.0497L2.5701 14.5027C2.68213 14.6147 2.83279 14.6767 2.98926 14.6753C3.14573 14.674 3.29533 14.6093 3.40547 14.4954L5.79223 12.0497C5.90427 11.9351 5.96728 11.7795 5.96739 11.6173C5.9675 11.455 5.90471 11.2994 5.79283 11.1846C5.68094 11.0698 5.52913 11.0052 5.37079 11.0051C5.21245 11.005 5.06055 11.0693 4.94851 11.184L3.5809 12.5866V0.611426Z" />
</svg>
