<svg xmlns="http://www.w3.org/2000/svg" width="15px" height="15px" viewBox="0 0 15 15" version="1.1">
  <g id="Page-1" stroke="none" stroke-width="1" fill="none" fill-rule="evenodd">
    <g id="Film" transform="translate(-1566.000000, -1086.000000)" fill-rule="nonzero">
      <g id="Group" transform="translate(1566.000000, 1086.000000)">
        <path d="M4.4064,11.26584 C8.19456,11.26584 11.26512,8.1948 11.26512,4.40664 C11.26512,2.72808 10.66032,1.19256 9.65952,0.00024 C12.75168,0.99288 14.99088,3.8892 14.99088,7.31112 C14.99088,11.55288 11.55264,14.99112 7.31088,14.99112 C3.88896,14.99112 0.99264,12.75192 8.52651283e-16,9.65976 C1.19232,10.66104 2.72832,11.26584 4.4064,11.26584 Z" id="Path" fill="#FFD93B"/>
        <path d="M12.0576,1.28328 C13.0848,2.5884 13.70208,4.23144 13.70208,6.02184 C13.70208,10.2636 10.26384,13.70184 6.02208,13.70184 C4.23168,13.70184 2.58864,13.08456 1.28352,12.05736 C2.68896,13.84152 4.86384,14.99112 7.31136,14.99112 C11.55312,14.99112 14.99136,11.55288 14.99136,7.31112 C14.99136,4.8636 13.84176,2.6892 12.0576,1.28328 Z" id="Path" fill="#F4C534"/>
        <g transform="translate(1.260000, 2.460000)" fill="#FFD83B" id="Path">
          <polygon points="2.58384 0.53832 3.37488 2.142 5.14416 2.3988 3.864 3.6468 4.16592 5.40888 2.58384 4.57704 1.00128 5.40888 1.3032 3.6468 0.02304 2.3988 1.79232 2.142"/>
          <polygon points="7.04592 0.0252 7.45584 0.85656 8.37312 0.98952 7.70928 1.63656 7.86624 2.54952 7.04592 2.11848 6.2256 2
.54952 6.38256 1.63656 5.71872 0.98952 6.636 0.85656"/>
        </g>
      </g>
    </g>
  </g>
</svg>