<svg width="15" height="15" viewBox="0 0 15 15" fill="none" xmlns="http://www.w3.org/2000/svg">
<path d="M13.5767 8.48V15.0001H12.326V9.72239H12.2652L10.82 10.7728V9.58788L12.326 8.48H13.5767Z" fill="#F0A832"/>
<path fill-rule="evenodd" clip-rule="evenodd" d="M12.4414 6.76834C11.0845 6.76834 10.4031 5.96495 10.3386 5.20557H11.5368C11.606 5.47826 11.9461 5.75584 12.4593 5.75584C13.4426 5.75584 13.8484 4.74212 13.8114 3.48628H13.741C13.5643 3.96318 13.0607 4.39361 12.2361 4.39361C11.1501 4.39361 10.1835 3.64402 10.1835 2.24389C10.1835 0.840081 11.1955 0 12.538 0C13.8388 0 15 0.777718 15 3.28573C15 5.56875 14.1384 6.76834 12.4414 6.76834ZM12.5154 3.42391C13.1168 3.42391 13.6288 3.01304 13.6288 2.23533C13.6288 1.46128 13.1538 1.00272 12.507 1.00272C11.8865 1.00272 11.4007 1.46128 11.4007 2.22554C11.4007 3.00815 11.8996 3.42391 12.5154 3.42391Z" fill="#F0A832"/>
<path d="M3.5809 0.611426C3.5809 0.44927 3.51803 0.293754 3.40613 0.179092C3.29423 0.06443 3.14246 1.33514e-05 2.98421 1.33514e-05C2.82595 1.33514e-05 2.67418 0.06443 2.56228 0.179092C2.45038 0.293754 2.38751 0.44927 2.38751 0.611426V12.5866L1.0199 11.184C0.964423 11.1271 0.898561 11.082 0.826076 11.0513C0.753591 11.0205 0.675901 11.0047 0.597444 11.0047C0.518987 11.0047 0.441297 11.0205 0.368812 11.0513C0.296327 11.082 0.230465 11.1271 0.174987 11.184C0.119509 11.2408 0.075502 11.3083 0.0454776 11.3826C0.0154532 11.4569 0 11.5365 0 11.6169C0 11.6973 0.0154532 11.7769 0.0454776 11.8511C0.075502 11.9254 0.119509 11.9929 0.174987 12.0497L2.5701 14.5027C2.68213 14.6147 2.83279 14.6767 2.98926 14.6753C3.14573 14.674 3.29533 14.6093 3.40547 14.4954L5.79223 12.0497C5.90427 11.9351 5.96728 11.7795 5.96739 11.6173C5.9675 11.455 5.90471 11.2994 5.79283 11.1846C5.68094 11.0698 5.52913 11.0052 5.37079 11.0051C5.21245 11.005 5.06055 11.0693 4.94851 11.184L3.5809 12.5866V0.611426Z" fill="#F0A832"/>
</svg>
