<svg height="17" viewBox="0 0 30 17" xmlns="http://www.w3.org/2000/svg">
  <path d="M0 1.5C0 0.671573 0.671573 0 1.5 0H28.5C29.3284 0 30 0.671573 30 1.5C30 2.32843 29.3284 3 28.5 3H1.5C0.671573 3 0 2.32843 0 1.5Z"/> 
  <path d="M0 8.5C0 7.67157 0.671573 7 1.5 7H28.5C29.3284 7 30 7.67157 30 8.5C30 9.32843 29.3284 10 28.5 10H1.5C0.671573 10 0 9.32843 0 8.5Z"/>
  <path d="M0 15.5C0 14.6716 0.671573 14 1.5 14H28.5C29.3284 14 30 14.6716 30 15.5C30 16.3284 29.3284 17 28.5 17H1.5C0.671573 17 0 16.3284 0 15.5Z"/>
</svg>