<svg viewBox="0 0 15 17" fill="none" xmlns="http://www.w3.org/2000/svg">
  <path d="M12.4635 1.21835C12.6089 1.21835 12.7479 1.2468 12.8807 1.30369C13.0893 1.38586 13.2552 1.51543 13.3784 1.69242C13.5017 1.8694 13.5633 2.06535 13.5633 2.28026V14.5017C13.5633 14.7166 13.5017 14.9125 13.3784 15.0895C13.2552 15.2665 13.0893 15.3961 12.8807 15.4783C12.7606 15.5288 12.6215 15.5541 12.4635 15.5541C12.1601 15.5541 11.8978 15.453 11.6765 15.2507L7.49529 11.2306L3.31403 15.2507C3.08648 15.4593 2.82416 15.5636 2.52708 15.5636C2.3817 15.5636 2.24264 15.5351 2.1099 15.4783C1.90131 15.3961 1.73539 15.2665 1.61213 15.0895C1.48887 14.9125 1.42725 14.7166 1.42725 14.5017V2.28026C1.42725 2.06535 1.48887 1.8694 1.61213 1.69242C1.73539 1.51543 1.90131 1.38586 2.1099 1.30369C2.24264 1.2468 2.3817 1.21835 2.52708 1.21835H12.4635Z" stroke="black"/>
</svg>
